<?xml version="1.0" encoding="UTF-8"?>
<svg xmlns="http://www.w3.org/2000/svg" viewBox="0 0 720 450" role="img" aria-label="Backoffice dashboard wireframe">
  <rect width="720" height="450" fill="#f8fafc"/>
  <rect x="0" y="0" width="128" height="450" fill="#e2e8f0"/>
  <rect x="16" y="20" width="72" height="10" rx="2" fill="#64748b"/>
  <rect x="16" y="44" width="56" height="7" rx="2" fill="#cbd5e1"/>
  <rect x="16" y="60" width="56" height="7" rx="2" fill="#cbd5e1"/>
  <rect x="16" y="76" width="56" height="7" rx="2" fill="#2563eb" opacity="0.35"/>
  <rect x="16" y="92" width="56" height="7" rx="2" fill="#cbd5e1"/>
  <rect x="152" y="24" width="140" height="14" rx="3" fill="#0f172a" opacity="0.14"/>
  <rect x="152" y="48" width="220" height="8" rx="2" fill="#94a3b8" opacity="0.45"/>
  <rect x="152" y="76" width="148" height="68" rx="8" fill="#fff" stroke="#e2e8f0"/>
  <rect x="164" y="90" width="72" height="8" rx="2" fill="#cbd5e1"/>
  <rect x="164" y="108" width="108" height="22" rx="4" fill="#eff6ff"/>
  <rect x="312" y="76" width="148" height="68" rx="8" fill="#fff" stroke="#e2e8f0"/>
  <rect x="324" y="90" width="72" height="8" rx="2" fill="#cbd5e1"/>
  <rect x="324" y="108" width="108" height="22" rx="4" fill="#eff6ff"/>
  <rect x="472" y="76" width="148" height="68" rx="8" fill="#fff" stroke="#e2e8f0"/>
  <rect x="484" y="90" width="72" height="8" rx="2" fill="#cbd5e1"/>
  <rect x="484" y="108" width="108" height="22" rx="4" fill="#eff6ff"/>
  <rect x="632" y="76" width="72" height="68" rx="8" fill="#fff" stroke="#e2e8f0"/>
  <rect x="152" y="160" width="552" height="256" rx="8" fill="#fff" stroke="#e2e8f0"/>
  <rect x="168" y="176" width="120" height="10" rx="2" fill="#0f172a" opacity="0.12"/>
  <rect x="168" y="198" width="520" height="8" rx="2" fill="#e2e8f0"/>
  <rect x="168" y="216" width="520" height="8" rx="2" fill="#e2e8f0"/>
  <rect x="168" y="234" width="400" height="8" rx="2" fill="#e2e8f0"/>
  <rect x="168" y="260" width="520" height="8" rx="2" fill="#e2e8f0"/>
  <rect x="168" y="278" width="480" height="8" rx="2" fill="#e2e8f0"/>
  <rect x="168" y="296" width="360" height="8" rx="2" fill="#e2e8f0"/>
  <text x="360" y="432" text-anchor="middle" fill="#64748b" font-family="Arial,sans-serif" font-size="11">Backoffice dashboard</text>
</svg>
