<?xml version="1.0" encoding="UTF-8"?>
<svg xmlns="http://www.w3.org/2000/svg" viewBox="0 0 720 450" role="img" aria-label="Applications pipeline wireframe">
  <rect width="720" height="450" fill="#f8fafc"/>
  <rect x="0" y="0" width="128" height="450" fill="#e2e8f0"/>
  <rect x="152" y="18" width="110" height="12" rx="3" fill="#0f172a" opacity="0.14"/>
  <rect x="152" y="38" width="180" height="8" rx="2" fill="#94a3b8" opacity="0.4"/>
  <rect x="152" y="58" width="68" height="22" rx="6" fill="#fff" stroke="#e2e8f0"/>
  <rect x="228" y="58" width="84" height="22" rx="6" fill="#dbeafe" stroke="#2563eb"/>
  <rect x="152" y="92" width="552" height="28" rx="6" fill="#fff" stroke="#e2e8f0"/>
  <rect x="164" y="102" width="52" height="8" rx="2" fill="#cbd5e1"/>
  <rect x="224" y="102" width="52" height="8" rx="2" fill="#cbd5e1"/>
  <rect x="284" y="102" width="52" height="8" rx="2" fill="#2563eb" opacity="0.45"/>
  <rect x="520" y="102" width="100" height="8" rx="2" fill="#94a3b8" opacity="0.35"/>
  <rect x="152" y="128" width="88" height="20" rx="4" fill="#fef2f2" stroke="#fecaca"/>
  <rect x="248" y="128" width="96" height="20" rx="4" fill="#f1f5f9" stroke="#e2e8f0"/>
  <rect x="152" y="156" width="552" height="248" rx="8" fill="#fff" stroke="#e2e8f0"/>
  <rect x="164" y="168" width="96" height="224" rx="6" fill="#f1f5f9"/>
  <rect x="172" y="180" width="64" height="8" rx="2" fill="#64748b"/>
  <rect x="172" y="196" width="80" height="44" rx="4" fill="#fff" stroke="#cbd5e1"/>
  <rect x="178" y="206" width="48" height="5" rx="1" fill="#cbd5e1"/>
  <rect x="178" y="216" width="36" height="5" rx="1" fill="#e2e8f0"/>
  <rect x="178" y="226" width="28" height="5" rx="1" fill="#e2e8f0"/>
  <rect x="172" y="248" width="80" height="44" rx="4" fill="#fff" stroke="#cbd5e1"/>
  <rect x="268" y="168" width="96" height="224" rx="6" fill="#f1f5f9"/>
  <rect x="276" y="180" width="64" height="8" rx="2" fill="#64748b"/>
  <rect x="276" y="196" width="80" height="44" rx="4" fill="#fff" stroke="#cbd5e1"/>
  <rect x="372" y="168" width="96" height="224" rx="6" fill="#f1f5f9"/>
  <rect x="380" y="180" width="64" height="8" rx="2" fill="#64748b"/>
  <rect x="476" y="168" width="96" height="224" rx="6" fill="#f1f5f9"/>
  <rect x="484" y="180" width="64" height="8" rx="2" fill="#64748b"/>
  <rect x="580" y="168" width="96" height="224" rx="6" fill="#f1f5f9"/>
  <rect x="588" y="180" width="64" height="8" rx="2" fill="#64748b"/>
  <rect x="588" y="196" width="80" height="44" rx="4" fill="#fff" stroke="#cbd5e1"/>
  <rect x="152" y="412" width="340" height="22" rx="4" fill="#fef3c7" stroke="#fcd34d"/>
  <rect x="164" y="420" width="180" height="6" rx="2" fill="#fbbf24" opacity="0.5"/>
  <rect x="420" y="416" width="88" height="14" rx="4" fill="#fff" stroke="#f59e0b"/>
  <text x="360" y="442" text-anchor="middle" fill="#64748b" font-family="Arial,sans-serif" font-size="11">Applications pipeline - week-scoped Kanban</text>
</svg>
