<?xml version="1.0" encoding="UTF-8"?>
<svg xmlns="http://www.w3.org/2000/svg" viewBox="0 0 720 450" role="img" aria-label="Candidate portal job detail wireframe">
  <rect width="720" height="450" fill="#f8fafc"/>
  <rect x="0" y="0" width="720" height="52" fill="#fff" stroke="#e2e8f0"/>
  <rect x="24" y="18" width="72" height="16" rx="3" fill="#2563eb" opacity="0.35"/>
  <rect x="24" y="68" width="80" height="8" rx="2" fill="#2563eb" opacity="0.35"/>
  <rect x="24" y="88" width="280" height="20" rx="4" fill="#0f172a" opacity="0.14"/>
  <rect x="24" y="116" width="180" height="8" rx="2" fill="#94a3b8" opacity="0.4"/>
  <rect x="24" y="132" width="140" height="8" rx="2" fill="#cbd5e1"/>
  <rect x="24" y="152" width="420" height="260" rx="8" fill="#fff" stroke="#e2e8f0"/>
  <rect x="36" y="168" width="88" height="8" rx="2" fill="#64748b"/>
  <rect x="36" y="184" width="380" height="6" rx="2" fill="#e2e8f0"/>
  <rect x="36" y="198" width="360" height="6" rx="2" fill="#e2e8f0"/>
  <rect x="36" y="212" width="340" height="6" rx="2" fill="#e2e8f0"/>
  <rect x="36" y="232" width="88" height="8" rx="2" fill="#64748b"/>
  <rect x="36" y="248" width="380" height="6" rx="2" fill="#e2e8f0"/>
  <rect x="36" y="262" width="360" height="6" rx="2" fill="#e2e8f0"/>
  <rect x="36" y="276" width="320" height="6" rx="2" fill="#e2e8f0"/>
  <rect x="36" y="296" width="88" height="8" rx="2" fill="#64748b"/>
  <rect x="36" y="312" width="200" height="6" rx="2" fill="#e2e8f0"/>
  <rect x="36" y="326" width="180" height="6" rx="2" fill="#e2e8f0"/>
  <rect x="36" y="340" width="160" height="6" rx="2" fill="#e2e8f0"/>
  <rect x="460" y="152" width="236" height="260" rx="8" fill="#fff" stroke="#e2e8f0"/>
  <rect x="472" y="168" width="80" height="8" rx="2" fill="#64748b"/>
  <rect x="472" y="188" width="120" height="28" rx="6" fill="#2563eb" opacity="0.35"/>
  <rect x="472" y="228" width="200" height="6" rx="2" fill="#e2e8f0"/>
  <rect x="472" y="244" width="200" height="6" rx="2" fill="#e2e8f0"/>
  <rect x="472" y="260" width="180" height="6" rx="2" fill="#e2e8f0"/>
  <rect x="472" y="284" width="80" height="8" rx="2" fill="#64748b"/>
  <rect x="472" y="300" width="200" height="6" rx="2" fill="#e2e8f0"/>
  <rect x="472" y="316" width="160" height="6" rx="2" fill="#e2e8f0"/>
  <rect x="472" y="340" width="200" height="6" rx="2" fill="#e2e8f0"/>
  <rect x="472" y="356" width="140" height="6" rx="2" fill="#e2e8f0"/>
  <text x="360" y="442" text-anchor="middle" fill="#64748b" font-family="Arial,sans-serif" font-size="11">Candidate portal - job detail</text>
</svg>
